<?xml version="1.0" encoding="UTF-8" standalone="no"?>
<!-- Created with Inkscape (http://www.inkscape.org/) -->
<svg
   xmlns:dc="http://purl.org/dc/elements/1.1/"
   xmlns:cc="http://creativecommons.org/ns#"
   xmlns:rdf="http://www.w3.org/1999/02/22-rdf-syntax-ns#"
   xmlns:svg="http://www.w3.org/2000/svg"
   xmlns="http://www.w3.org/2000/svg"
   xmlns:sodipodi="http://sodipodi.sourceforge.net/DTD/sodipodi-0.dtd"
   xmlns:inkscape="http://www.inkscape.org/namespaces/inkscape"
   width="206.55766"
   height="165.38217"
   id="svg2"
   sodipodi:version="0.32"
   inkscape:version="0.46"
   version="1.0"
   sodipodi:docname="logo.svg"
   inkscape:output_extension="org.inkscape.output.svg.inkscape">
  <defs
     id="defs4">
    <inkscape:perspective
       sodipodi:type="inkscape:persp3d"
       inkscape:vp_x="0 : 526.18109 : 1"
       inkscape:vp_y="0 : 1000 : 0"
       inkscape:vp_z="744.09448 : 526.18109 : 1"
       inkscape:persp3d-origin="372.04724 : 350.78739 : 1"
       id="perspective10" />
    <inkscape:perspective
       id="perspective2427"
       inkscape:persp3d-origin="372.04724 : 350.78739 : 1"
       inkscape:vp_z="744.09448 : 526.18109 : 1"
       inkscape:vp_y="0 : 1000 : 0"
       inkscape:vp_x="0 : 526.18109 : 1"
       sodipodi:type="inkscape:persp3d" />
  </defs>
  <sodipodi:namedview
     id="base"
     pagecolor="#ffffff"
     bordercolor="#666666"
     borderopacity="1.0"
     gridtolerance="10000"
     guidetolerance="10"
     objecttolerance="10"
     inkscape:pageopacity="0.0"
     inkscape:pageshadow="2"
     inkscape:zoom="0.98994949"
     inkscape:cx="23.507891"
     inkscape:cy="144.81351"
     inkscape:document-units="px"
     inkscape:current-layer="layer1"
     showgrid="false"
     inkscape:window-width="1061"
     inkscape:window-height="987"
     inkscape:window-x="0"
     inkscape:window-y="30" />
  <metadata
     id="metadata7">
    <rdf:RDF>
      <cc:Work
         rdf:about="">
        <dc:format>image/svg+xml</dc:format>
        <dc:type
           rdf:resource="http://purl.org/dc/dcmitype/StillImage" />
      </cc:Work>
    </rdf:RDF>
  </metadata>
  <g
     inkscape:label="Layer 1"
     inkscape:groupmode="layer"
     id="layer1"
     transform="translate(0.1728293,7.0430519e-2)">
    <path
       style="fill:#000000"
       d="M 64.627766,165.2065 C 47.685236,163.8831 23.729596,154.10102 11.192516,143.38669 C 9.3254058,141.79104 7.3885258,139.70813 6.4061258,138.23941 C 4.6009158,135.54061 4.1228558,133.61165 4.7226158,131.44661 C 4.8602258,130.94986 6.7372558,126.19776 8.8937958,120.88638 C 11.050336,115.57501 13.962926,108.38433 15.366216,104.9071 C 16.769506,101.42987 18.234096,97.803275 18.620866,96.84802 C 19.007636,95.892764 19.323276,94.986114 19.322286,94.833241 C 19.321306,94.680367 19.188076,94.148869 19.026236,93.652121 C 18.824166,93.031875 18.726806,92.357174 18.715466,91.498391 L 18.698956,90.247833 L 19.965556,87.051976 L 21.232156,83.856119 L 21.007606,82.090552 C 20.884106,81.11949 20.714516,80.256844 20.630736,80.173563 C 20.520606,80.064084 19.081326,81.009569 15.434586,83.586991 C 12.660476,85.547659 10.017156,87.426872 9.5605358,87.763019 C 6.8375658,89.767554 2.9536858,89.226198 0.98060575,86.567102 C -0.56919425,84.478459 -0.55563425,81.253385 1.0117257,79.165306 C 1.7848757,78.135301 2.1310357,77.894324 12.122056,71.431019 L 20.551936,65.977628 L 20.784146,64.912452 C 21.678146,60.811645 23.296856,57.104313 25.496646,54.119461 C 28.273416,50.351707 33.199876,46.158585 39.576086,42.135861 C 40.206576,41.73809 40.722426,41.35198 40.722426,41.27784 C 40.722426,41.063401 39.871846,40.472333 39.047886,40.114198 C 37.372246,39.385879 36.637866,39.258296 34.191766,39.270545 C 31.889926,39.282072 30.116416,39.49514 27.001086,40.134433 C 26.294176,40.279496 25.715796,40.366122 25.715796,40.326934 C 25.715796,40.181854 27.065636,38.652562 28.488026,37.186159 C 34.096976,31.40365 40.546886,27.243643 46.500176,25.568841 C 50.877826,24.337304 57.146596,23.80453 62.815526,24.182222 C 66.605356,24.434718 66.490296,24.437094 66.537846,24.105336 C 66.598266,23.683676 65.060956,21.450742 63.909786,20.2881 C 62.440956,18.804631 60.355526,17.516988 57.059496,16.058412 C 56.517056,15.818373 56.283046,15.647229 56.373536,15.556742 C 56.631626,15.298645 59.964306,13.92896 61.716706,13.360771 C 65.149116,12.247864 67.780136,11.816423 71.152546,11.813457 C 73.645776,11.811263 75.055746,11.987762 77.190136,12.569235 C 80.590156,13.495502 85.421396,15.804238 89.056396,18.239834 C 89.988816,18.864596 90.127996,18.916608 90.654326,18.836996 C 90.971416,18.789032 91.311166,18.699705 91.409306,18.63849 C 91.507456,18.577277 91.768226,17.839301 91.988806,16.998545 C 93.045823,12.969672 94.618293,9.9031219 96.893193,7.4342699 C 98.621283,5.5588449 101.92892,2.9562329 103.73639,2.0497129 C 104.93439,1.4488629 107.14966,0.6776829 108.7386,0.3083529 C 110.69104,-0.1454771 113.62741,-0.2000671 115.04973,0.1910229 C 116.03931,0.4631229 117.30934,1.0661629 118.24593,1.7086529 C 119.11731,2.3064029 120.79679,3.9294829 121.72541,5.0712929 C 122.99739,6.6352719 124.92286,9.6369399 124.75915,9.8006549 C 124.72512,9.8346879 124.04537,9.8122929 123.2486,9.7508909 C 119.74162,9.4806279 117.10906,10.176166 115.80602,11.717267 C 115.1848,12.451985 114.50531,14.063493 114.20627,15.511279 C 113.85088,17.23191 113.76361,20.779206 114.07195,20.970573 C 114.18884,21.043113 114.62442,20.98596 115.18356,20.824722 C 116.521,20.439043 120.56385,19.649711 122.49468,19.397288 C 129.10341,18.533309 134.46378,18.780045 142.08667,20.299104 C 145.06641,20.892893 150.76341,22.3086 150.95961,22.504031 C 151.02547,22.569641 150.71504,22.693934 150.26486,22.782201 C 145.54515,23.707598 142.68616,24.973652 140.86748,26.943688 C 139.97261,27.913022 138.82134,29.771566 138.82134,30.246835 C 138.82134,30.594512 138.59906,30.537794 141.7393,30.991418 C 146.09069,31.620004 150.54562,32.736149 154.10621,34.08985 C 157.88713,35.527316 161.35919,37.612138 164.87453,40.555732 C 166.32676,41.771774 169.693,45.14505 169.6017,45.292782 C 169.56752,45.348084 168.80255,45.250898 167.90179,45.076814 C 164.55675,44.430348 162.01512,44.306914 159.81847,44.684247 C 158.21215,44.960175 156.67646,45.46748 156.67646,45.722188 C 156.67646,45.827021 157.08289,46.190723 157.57963,46.530416 C 158.07638,46.870111 159.1949,47.685195 160.06523,48.341717 C 160.93558,48.998238 161.75694,49.616447 161.8905,49.715516 C 162.09317,49.865846 162.36002,49.83961 163.50393,49.556894 C 166.68313,48.77115 169.7801,49.096794 172.59096,50.512388 C 174.38799,51.417406 177.06691,54.012685 178.11145,55.860531 C 178.69742,56.897128 179.33062,58.840834 179.60429,60.442991 C 179.72831,61.169007 179.85673,61.898005 179.88967,62.062988 C 179.95824,62.406426 179.4671,62.132647 189.2603,67.286426 C 189.98631,67.668499 191.67456,68.557816 193.01196,69.262686 C 194.34935,69.967554 196.31897,70.999929 197.38889,71.55685 C 198.4588,72.113771 199.39672,72.61617 199.47314,72.673291 C 199.54956,72.730412 200.2061,73.076127 200.93212,73.441548 C 204.83518,75.406053 206.04835,76.833023 206.34874,79.812729 C 206.49559,81.269402 206.20291,82.353752 205.31028,83.660172 C 204.17892,85.315979 202.68866,86.132096 200.57204,86.255 C 199.09771,86.34061 198.18149,86.075641 196.48572,85.073248 C 194.1855,83.713564 193.70426,83.432875 190.58033,81.628897 C 185.81693,78.878175 185.61676,78.762175 184.95284,78.367581 C 184.60894,78.163188 183.85861,77.725495 183.28544,77.394929 C 182.71227,77.064364 181.96193,76.626019 181.61803,76.420829 C 178.81086,74.745929 177.49005,74.004525 177.30198,73.998137 C 177.18066,73.994018 176.53283,74.508356 175.86237,75.141111 C 174.56798,76.362702 174.50373,76.561055 175.33623,76.765226 C 175.8931,76.901796 177.37215,77.900865 177.92753,78.515609 C 178.52257,79.174263 178.92679,79.960702 179.87921,82.312814 C 180.2848,83.314476 181.08549,85.290781 181.65851,86.7046 C 183.30051,90.75591 183.38221,91.199037 182.85213,93.178301 C 182.69023,93.782804 182.52785,94.44229 182.49128,94.643823 C 182.42874,94.988504 183.72496,98.253252 194.4276,124.70752 C 197.15356,131.44542 197.1696,131.48953 197.26401,132.50542 C 197.5214,135.27491 195.86805,138.35042 192.22971,141.87005 C 182.02124,151.7454 159.64692,161.89477 142.15615,164.58428 C 138.77477,165.10423 136.9987,165.257 134.30546,165.25955 C 129.6033,165.26401 126.50193,164.40736 124.67453,162.59929 C 123.68145,161.61672 123.53747,161.32481 121.30566,155.76921 C 120.30928,153.28893 119.42684,151.17862 119.34469,151.07963 C 119.22956,150.9409 118.38373,150.89965 115.65505,150.89965 L 112.11478,150.89965 L 111.16727,151.7769 C 108.68529,154.07483 106.00868,155.27761 102.24267,155.78734 C 100.83272,155.97819 99.462063,155.83918 97.210083,155.277 C 94.887343,154.69715 92.781896,153.53179 90.886456,151.7769 L 89.938946,150.89965 L 86.259726,150.89965 C 83.454266,150.89965 82.545706,150.94157 82.433996,151.07619 C 82.353416,151.17327 81.412956,153.42646 80.344076,156.08328 C 78.341226,161.06159 77.901076,161.93888 76.995996,162.75656 C 74.824376,164.71849 70.173756,165.63971 64.627766,165.2065 z M 73.412216,161.774 C 74.365776,161.25501 75.580236,159.89807 76.250736,158.6025 C 76.816556,157.50917 87.292106,131.89772 88.210486,129.36235 C 88.545216,128.43823 88.710506,127.70797 88.761546,126.92757 C 88.830856,125.86806 88.815876,125.79074 88.459336,125.367 C 87.769666,124.54739 86.376576,124.4509 85.036536,125.12995 C 84.015766,125.64722 83.041316,126.63383 79.091526,131.1491 L 75.390526,135.37997 L 75.298496,134.69858 C 75.247866,134.32381 75.197566,132.86042 75.186696,131.44661 C 75.175836,130.03279 75.116166,127.99722 75.054096,126.92313 C 74.888686,124.06098 74.477216,123.32686 72.824586,122.94539 C 71.956536,122.74502 71.058276,122.93652 70.356876,123.47152 C 69.762546,123.92484 68.884186,125.23157 68.229576,126.6363 C 67.174396,128.90062 56.408946,155.53464 56.212966,156.36575 C 55.821326,158.02652 56.047886,159.43893 56.815406,160.12155 C 57.244536,160.5032 58.242006,160.57352 59.018786,160.27686 C 60.006026,159.89984 61.231376,158.58834 62.003216,157.08262 C 62.467806,156.17629 66.905196,145.48066 68.474016,141.48577 C 68.697876,140.91572 68.780926,141.67603 68.818106,144.63596 C 68.859566,147.93602 68.862286,147.96243 69.196726,148.31815 C 69.659776,148.81066 70.245216,148.78569 71.071806,148.23818 C 71.458056,147.98235 72.725896,146.65848 74.117796,145.05761 C 75.429186,143.54934 76.521926,142.36781 76.546116,142.43198 C 76.570306,142.49613 75.249386,145.85011 73.610736,149.88526 C 71.972076,153.9204 70.515416,157.56579 70.373706,157.98612 C 70.009806,159.06547 70.019156,160.67756 70.393046,161.32092 C 70.988766,162.346 72.064616,162.50745 73.412216,161.774 z M 137.6969,161.55333 C 138.07723,161.42918 138.27049,161.24281 138.5087,160.77042 C 138.89907,159.99631 138.91319,159.08195 138.55618,157.69571 C 138.22775,156.42037 133.44731,144.42066 132.67764,142.93953 C 130.86745,139.45608 127.95596,138.49364 127.39877,141.19451 C 127.17096,142.29879 127.51393,143.58387 129.10118,147.57332 C 129.80216,149.33518 130.33623,150.81615 130.28801,150.86438 C 130.11233,151.04006 128.96351,150.34149 128.10056,149.53424 C 125.82491,147.40548 123.55109,143.04637 122.96713,139.69301 C 122.88029,139.19435 122.83532,138.2408 122.8672,137.57401 C 122.96495,135.52955 123.45352,135.03348 125.60281,134.79641 C 127.08264,134.63318 127.4967,134.4257 127.80334,133.69374 C 128.54877,131.91434 126.94669,127.27773 124.84583,125.13436 C 123.77802,124.04494 123.34491,123.88676 121.72116,123.99317 C 120.98108,124.04168 120.06236,124.18252 119.67956,124.30614 C 118.17468,124.79216 117.04887,126.06028 116.42434,127.97285 C 116.00671,129.25177 115.91644,132.46486 116.23677,134.64913 C 117.00133,139.86262 119.49876,146.35037 122.80998,151.72485 C 126.18719,157.20642 130.34688,161.01861 133.7409,161.74261 C 134.44985,161.89384 137.03219,161.77029 137.6969,161.55333 z M 144.90503,160.40931 C 145.73757,159.82618 145.92426,158.07491 145.34849,156.24924 C 144.81025,154.54257 133.68417,126.82863 133.15985,125.88859 C 132.56017,124.81342 131.45129,123.60007 130.73397,123.23411 C 129.94956,122.83394 129.15963,122.88445 128.67855,123.36552 C 127.91015,124.13391 127.82671,125.45856 128.42475,127.39477 C 128.8801,128.86902 139.91646,156.45162 140.46578,157.48827 C 141.05465,158.59957 142.25685,159.96935 142.97776,160.35044 C 143.58837,160.67319 144.48901,160.70071 144.90503,160.40931 z M 153.5341,158.61159 C 156.29739,157.84722 160.04131,156.62886 160.45025,156.3609 C 161.05033,155.96772 161.2334,155.29293 161.15576,153.76033 C 161.04589,151.59129 160.11701,149.11611 158.77073,147.40491 C 157.32383,145.56582 156.83179,145.46805 153.89745,146.43661 C 152.75111,146.81498 151.77576,147.08293 151.73002,147.03206 C 151.68426,146.98119 151.50625,144.06329 151.33443,140.54785 C 150.69638,127.49393 150.55538,125.53785 150.15246,124.15171 C 149.73671,122.72136 148.92418,120.95338 148.28151,120.08073 C 147.7159,119.31271 146.69956,118.66318 146.06343,118.66318 C 145.79684,118.66318 144.44911,119.03385 143.06847,119.48692 C 141.68783,119.93998 139.49525,120.60106 138.19607,120.95598 C 136.69143,121.36704 135.7225,121.70535 135.52702,121.88794 C 134.13124,123.19158 135.50675,128.37903 137.95346,131.03872 C 139.29619,132.49835 139.6107,132.53206 143.04407,131.58426 C 144.182,131.27014 145.15905,131.06376 145.21525,131.12564 C 145.27147,131.18753 145.42307,134.86478 145.55214,139.2973 C 145.94913,152.93076 145.93528,152.70082 146.45216,154.23446 C 147.47565,157.2713 149.17552,159.23621 150.77954,159.23656 C 151.05169,159.23661 152.29123,158.95538 153.5341,158.61159 z M 48.849546,157.08181 C 51.837776,156.02751 54.815176,152.60154 57.543066,147.07852 C 58.747366,144.64023 65.883806,127.32945 66.369856,125.6675 C 66.730926,124.43287 66.702586,123.05498 66.299046,122.22422 C 66.036406,121.68355 65.845626,121.49218 65.351296,121.27351 C 63.869056,120.61785 62.055846,121.82205 60.763816,124.32019 C 60.456006,124.91533 58.565106,129.4353 56.561796,134.36456 C 54.558496,139.29382 52.702486,143.74368 52.437326,144.25313 C 51.477496,146.09725 50.218606,146.95591 49.006976,146.59288 C 47.737506,146.21255 47.312706,145.14968 47.705926,143.33765 C 47.828016,142.77506 49.552986,138.3363 51.733126,132.97473 C 53.830626,127.81638 55.665936,123.25201 55.811596,122.83169 C 56.006746,122.26856 56.076436,121.68353 56.076436,120.60848 C 56.076436,119.3337 56.036656,119.08553 55.761356,118.64281 C 55.325166,117.94137 54.809586,117.63722 54.061656,117.64011 C 52.885906,117.64467 51.564546,118.68035 50.629056,120.33058 C 50.060316,121.33386 42.965406,138.773 42.177766,141.10365 C 40.949526,144.73812 40.421416,147.34347 40.403366,149.85752 C 40.389676,151.76445 40.580266,152.83389 41.147966,154.03565 C 41.877436,155.57984 43.189166,156.68287 44.953066,157.23534 C 45.936216,157.54327 47.743426,157.47207 48.849546,157.08181 z M 167.1978,153.57988 C 167.4112,153.37541 167.6476,152.98572 167.72312,152.7139 C 167.92026,152.00421 167.89004,150.54981 167.65766,149.56446 C 167.54755,149.0976 166.07303,145.23214 164.38092,140.97458 C 162.68882,136.71702 161.3294,133.20854 161.35997,133.17795 C 161.39055,133.14737 162.09926,133.94898 162.93488,134.95927 C 165.02623,137.48785 165.63364,138.1246 166.17001,138.35069 C 166.75409,138.59688 167.11379,138.4836 167.37948,137.96982 C 167.73391,137.28442 167.75717,136.493 167.51744,133.27452 C 167.39025,131.56688 167.3144,130.1415 167.34888,130.107 C 167.38337,130.07251 168.79952,133.51346 170.4959,137.75356 C 172.19226,141.99364 173.79494,145.82634 174.05739,146.27066 C 175.26947,148.32262 176.95363,149.09788 177.92418,148.05064 C 178.60958,147.31108 178.76091,145.462 178.28481,143.64428 C 177.93672,142.31531 167.13729,115.20955 166.17884,113.25918 C 164.80185,110.45715 163.47948,109.70468 162.13048,110.95553 C 161.06169,111.94657 160.9962,112.72903 161.42956,119.33094 C 161.73571,123.99471 161.76052,125.01034 161.56235,124.7654 C 161.53659,124.73357 160.00943,122.98142 158.16866,120.87175 C 154.96116,117.19568 154.00915,116.28258 153.16239,116.07006 C 152.66029,115.94404 151.73537,116.11404 151.34749,116.40364 C 150.31488,117.17459 150.1487,118.09989 150.6763,120.14086 C 151.02913,121.50566 161.84074,148.87548 162.79919,150.83017 C 163.50695,152.2736 164.36599,153.29492 165.24395,153.73675 C 166.11807,154.17665 166.61667,154.13662 167.1978,153.57988 z M 34.062256,151.75724 C 35.715136,150.70901 37.217426,148.17658 37.738826,145.55964 C 37.846456,145.01941 38.062356,142.98295 38.218616,141.03418 C 38.643516,135.73483 38.493266,136.31856 39.576996,135.75668 C 42.570376,134.20469 45.764736,129.02962 47.126226,123.52644 C 47.403606,122.40522 47.453206,121.85064 47.455506,119.84425 C 47.458056,117.62077 47.436146,117.42138 47.082316,116.44781 C 46.592446,115.09988 45.845686,114.03301 44.970026,113.42999 C 44.582626,113.16322 42.952576,112.20092 41.347706,111.29156 C 38.803256,109.84981 38.347936,109.63773 37.790586,109.63478 C 36.747376,109.62927 35.771806,110.539 34.814126,112.41041 C 34.448526,113.12483 23.257036,140.64353 22.834166,141.86788 C 22.357196,143.24888 22.241126,145.21323 22.583536,146.10981 C 22.862946,146.84144 23.757296,147.66266 24.407516,147.78463 C 24.656586,147.83136 25.065616,147.82451 25.316476,147.76942 C 25.929516,147.63478 27.197256,146.33638 27.760496,145.26631 C 28.003546,144.80455 29.243736,141.86575 30.516476,138.73565 C 32.541566,133.75526 33.299436,131.98345 33.029376,132.86084 C 32.666396,134.0401 30.950686,148.78277 31.047756,149.88834 C 31.129356,150.8176 31.375366,151.41928 31.857296,151.86827 C 32.319476,152.29886 33.284856,152.25025 34.062256,151.75724 z M 34.191556,129.83349 C 34.191166,129.60164 37.440196,121.72008 37.536156,121.72008 C 37.808306,121.72008 40.013086,123.04639 40.357606,123.41736 C 40.728436,123.81666 40.752096,123.90802 40.688286,124.69431 C 40.604726,125.7239 39.968666,127.17782 39.347006,127.76024 C 38.930346,128.15061 38.826046,128.17724 37.417586,128.25299 C 36.598666,128.29702 35.794346,128.4071 35.630196,128.49761 C 35.466046,128.58812 35.075256,128.95357 34.761756,129.30973 C 34.448256,129.66587 34.191666,129.90158 34.191556,129.83349 z M 104.01429,151.59533 C 107.62503,150.45724 110.19323,147.87199 111.33099,144.23003 C 111.6049,143.35324 111.65656,142.8903 111.65656,141.31208 C 111.65656,139.73385 111.6049,139.27091 111.33099,138.39412 C 110.18448,134.72417 107.61477,132.15446 103.94481,131.00794 C 103.06802,130.73403 102.60508,130.68238 101.02686,130.68238 C 99.448643,130.68238 98.985693,130.73403 98.108903,131.00794 C 94.438943,132.15446 91.869236,134.72417 90.722726,138.39412 C 90.448816,139.27091 90.397166,139.73385 90.397166,141.31208 C 90.397166,142.8903 90.448816,143.35324 90.722726,144.23003 C 91.971216,148.2264 95.023613,151.01245 99.092003,151.86899 C 100.16321,152.09452 102.91612,151.94147 104.01429,151.59533 z M 87.409736,146.76556 C 87.409736,146.63164 87.254196,145.89694 87.064106,145.13289 C 86.874016,144.36885 86.678046,143.43107 86.628636,143.04896 C 86.507416,142.11156 86.330296,141.77104 86.096196,142.02535 C 85.803036,142.34384 84.178616,146.57779 84.264106,146.80059 C 84.328536,146.96847 84.642486,147.00904 85.876916,147.00904 C 87.244886,147.00904 87.409736,146.98285 87.409736,146.76556 z M 117.55599,146.6964 C 117.54647,146.19599 115.961,142.49316 115.75626,142.49316 C 115.59016,142.49316 114.97366,144.81221 114.69427,146.48798 L 114.6074,147.00904 L 116.08467,147.00904 C 117.52579,147.00904 117.5618,147.00138 117.55599,146.6964 z M 187.96842,141.36673 C 189.76484,140.50557 190.99291,138.17591 191.47407,134.71654 C 191.66107,133.37207 191.66428,129.68605 191.47989,128.04232 C 190.45755,118.92907 186.46394,109.43742 181.62745,104.62593 C 179.47085,102.48047 177.8976,101.65958 175.92107,101.64842 C 174.86876,101.64249 174.6601,101.68602 174.00716,102.04778 C 171.50921,103.43174 170.22697,106.83642 170.22493,112.09065 C 170.22267,117.92366 172.02526,124.91557 175.08698,130.94966 C 178.20557,137.09585 182.18744,141.17937 185.64759,141.77987 C 186.27705,141.88911 187.23411,141.71873 187.96842,141.36673 z M 182.60522,130.60853 C 180.78932,129.84162 178.66762,126.76316 177.46909,123.15626 C 176.73938,120.96023 176.54563,119.77446 176.55331,117.55157 C 176.55937,115.79959 176.60104,115.43367 176.8728,114.74621 C 177.66745,112.73599 179.21322,112.54881 181.01189,114.24503 C 182.89907,116.0247 184.51872,119.30695 185.31764,122.97064 C 185.50597,123.83432 185.57557,124.73046 185.57664,126.30544 C 185.57798,128.26334 185.54877,128.52401 185.25539,129.17232 C 184.80459,130.16851 184.28249,130.6323 183.53916,130.69687 C 183.20855,130.72559 182.78829,130.68584 182.60522,130.60853 z M 16.791786,139.63898 C 22.417526,137.70277 28.455666,127.24328 30.032416,116.70302 C 30.424616,114.08128 30.456496,110.45417 30.104956,108.45033 C 29.639076,105.79479 28.766306,103.69733 27.494836,102.17758 C 26.676296,101.19922 23.814826,98.796812 23.445506,98.777901 C 22.138276,98.710941 20.924626,99.5482 19.971576,101.17445 C 19.467196,102.03512 8.2542458,129.62641 7.8950258,130.8908 C 7.6861058,131.62616 7.5967558,132.34195 7.5915058,133.32243 C 7.5804658,135.3829 7.8524958,135.86663 10.053506,137.70043 C 12.457666,139.70349 13.307376,140.10279 14.947146,140.00004 C 15.482106,139.96651 16.312196,139.80404 16.791786,139.63898 z M 16.019346,128.24943 C 15.768406,128.09643 15.530226,127.88561 15.490066,127.78094 C 15.420636,127.60003 21.574896,112.25949 21.867566,111.88394 C 22.057526,111.64018 22.642946,112.20698 23.135006,113.11104 C 24.393776,115.42381 24.042556,119.4377 22.240026,123.33927 C 20.433756,127.24894 17.794816,129.33192 16.019346,128.24943 z M 92.181476,129.76842 C 94.335503,128.16385 96.689633,127.25928 99.811043,126.8368 C 102.7427,126.44 106.93624,127.62449 109.70561,129.63155 C 110.29113,130.05589 110.72284,130.28217 110.7999,130.20511 C 110.87696,130.12805 110.49702,128.99972 109.83683,127.34504 C 108.76941,124.66972 108.73471,124.60629 108.18674,124.32824 C 106.68131,123.56434 105.47302,122.52552 104.99148,121.58113 C 104.81612,121.23723 103.87539,118.98624 102.90096,116.57892 C 101.92653,114.17161 101.10322,112.17293 101.0714,112.13742 C 100.85517,111.89619 100.38993,112.84227 98.887283,116.57892 C 97.949933,118.90981 97.018873,121.13776 96.818263,121.52993 C 96.374123,122.39812 95.239193,123.43608 94.024203,124.08523 C 93.489303,124.37103 93.054083,124.71049 92.959173,124.91591 C 92.575316,125.74685 90.744536,130.33656 90.744536,130.46795 C 90.744536,130.75555 91.067216,130.59847 92.181476,129.76842 z M 90.091186,121.31149 C 91.485346,120.99562 92.853796,120.32506 93.255483,119.76095 C 93.571523,119.31712 94.635143,116.81731 94.635143,116.51837 C 94.635143,116.18066 94.435543,116.16042 93.368823,116.38995 C 92.088076,116.66553 87.247186,116.70887 84.908626,116.46568 C 74.135216,115.34538 59.328546,110.66435 46.836246,104.42939 C 39.489876,100.76278 33.517946,96.931446 29.050606,93.018883 C 27.415386,91.586736 26.655906,90.803473 25.177776,89.024763 C 24.618766,88.352076 24.090676,87.825265 24.004256,87.854073 C 23.917826,87.882882 23.582686,88.558318 23.259496,89.355044 C 22.823376,90.430155 22.670226,91.000671 22.665496,91.567867 C 22.638566,94.79125 28.890766,100.76239 37.943426,106.15896 C 39.931176,107.34391 44.658166,109.85005 46.732126,110.81849 C 47.668246,111.25562 48.496696,111.66071 48.573116,111.71869 C 48.649546,111.77666 49.270556,112.05421 49.953136,112.33546 C 50.635726,112.6167 51.855016,113.14709 52.662666,113.51408 C 53.470326,113.88109 54.693886,114.38662 55.381686,114.63748 C 56.069486,114.88836 57.194986,115.31 57.882796,115.57446 C 65.446136,118.48261 74.805696,120.84021 81.156966,121.43701 C 82.035826,121.51961 82.942476,121.61224 83.171746,121.64288 C 83.401016,121.67352 84.776626,121.67381 86.228656,121.64352 C 88.203526,121.60232 89.176726,121.51866 90.091186,121.31149 z M 119.15987,121.58191 C 119.9241,121.51106 121.20592,121.38464 122.00835,121.30098 C 123.54167,121.14109 128.79375,120.14275 131.04012,119.58415 C 134.99161,118.60157 140.4446,116.9004 143.89303,115.57446 C 144.58083,115.31 145.70633,114.88836 146.39413,114.63748 C 147.08194,114.38662 148.30549,113.88109 149.11315,113.51408 C 149.9208,113.14709 151.14009,112.6167 151.82269,112.33546 C 152.50527,112.05421 153.12628,111.77666 153.2027,111.71869 C 153.27912,111.66071 154.10757,111.25562 155.04369,110.81849 C 157.12147,109.84825 161.85826,107.33664 163.80472,106.17309 C 172.79208,100.80063 178.88406,95.065121 179.09089,91.781433 C 179.1368,91.052542 179.06772,90.751353 178.56392,89.483606 C 178.24503,88.681168 177.92236,87.9621 177.84688,87.885678 C 177.69897,87.735914 177.60398,87.832142 175.68225,90.078635 C 173.00445,93.208967 167.70465,97.268039 161.67867,100.80387 C 153.55554,105.57024 143.38444,109.92741 133.13648,113.03099 C 123.3198,116.00397 113.26483,117.35451 108.33752,116.36188 C 106.91134,116.07456 106.9046,116.09172 107.68727,118.01528 C 108.39192,119.74709 108.62215,120.05381 109.61439,120.58266 C 111.43779,121.55452 115.20319,121.9487 119.15987,121.58191 z M 92.015106,112.54378 C 95.343693,112.20945 97.285693,111.12301 97.270663,109.60356 C 97.252413,107.75816 94.645463,104.33038 90.922146,101.25609 C 85.542676,96.814338 76.401786,91.504297 68.581966,88.278439 C 67.741316,87.931651 66.990986,87.597548 66.914566,87.53599 C 66.753496,87.406249 64.275346,86.406692 62.954476,85.938693 C 62.457726,85.762691 61.144646,85.294128 60.036526,84.897444 C 55.879926,83.409482 51.377466,82.078311 47.878366,81.302832 C 47.190566,81.150399 46.033806,80.889624 45.307786,80.72333 C 43.855386,80.390656 43.302516,80.300264 40.248236,79.896092 C 36.167586,79.3561 31.562926,79.392707 29.259026,79.983454 C 27.492076,80.436521 26.271596,81.414274 26.271596,82.376756 C 26.271596,85.728616 32.133306,91.410853 41.347706,96.991264 C 43.413226,98.242178 48.073606,100.72615 50.344826,101.78672 C 51.280956,102.22386 52.109406,102.62894 52.185826,102.68692 C 52.262256,102.74489 52.883256,103.02244 53.565846,103.30369 C 54.248436,103.58493 55.467726,104.11532 56.275376,104.48231 C 57.083036,104.84932 58.306586,105.35485 58.994396,105.60571 C 59.682196,105.85659 60.807696,106.27823 61.495496,106.54269 C 65.244986,107.98439 71.227086,109.83104 74.834726,110.66046 C 79.070956,111.63439 79.429056,111.70846 81.295916,111.99708 C 85.310506,112.61771 89.268916,112.81961 92.015106,112.54378 z M 116.33178,112.48286 C 118.90729,112.25565 121.74809,111.84448 123.53681,111.44001 C 127.2996,110.58918 128.05346,110.40856 129.4422,110.02511 C 133.11393,109.01129 137.65433,107.5524 140.28032,106.54269 C 140.96812,106.27823 142.09362,105.85659 142.78143,105.60571 C 143.46923,105.35485 144.69278,104.84932 145.50045,104.48231 C 146.3081,104.11532 147.52738,103.58493 148.20998,103.30369 C 148.89256,103.02244 149.51357,102.74489 149.58999,102.68692 C 149.66641,102.62894 150.49486,102.22386 151.43099,101.78672 C 160.047,97.763411 168.71319,91.980007 172.58252,87.671197 C 174.48405,85.553675 175.33304,84.104911 175.45827,82.763803 C 175.53561,81.935553 175.51824,81.866974 175.11469,81.407358 C 173.27729,79.314685 167.66344,78.936277 158.62176,80.295636 C 157.84699,80.412119 157.21,80.547459 153.89745,81.299412 C 150.17408,82.14462 145.75771,83.450567 141.7393,84.894646 C 140.63117,85.292869 139.31809,85.762691 138.82134,85.938693 C 137.51032,86.403203 135.02326,87.405678 134.86126,87.534909 C 134.78484,87.595873 134.22209,87.849091 133.6107,88.097613 C 131.05961,89.134619 126.81989,91.176749 123.32838,93.050258 C 119.69798,94.9983 115.75154,97.520623 112.49026,99.977306 C 107.02701,104.09269 103.71438,108.54163 104.69761,110.443 C 105.64874,112.28229 109.9857,113.04271 116.33178,112.48286 z M 102.45019,104.08694 C 102.63159,104.01797 103.14695,103.50211 103.59544,102.9406 C 106.20629,99.67174 112.25536,94.877844 117.77037,91.706928 C 119.91133,90.475967 120.10535,90.311475 121.01808,88.953639 C 123.9584,84.579412 126.4139,78.943555 127.41626,74.268547 C 127.86539,72.173798 128.02328,70.424624 127.94654,68.393746 C 127.82945,65.295214 127.12651,63.25551 125.62115,61.64628 C 124.66381,60.622879 123.79547,60.114554 122.39872,59.759877 L 121.38308,59.501974 L 121.36495,57.29769 C 121.32376,52.287804 119.99562,48.566402 117.27785,45.845765 C 116.29516,44.862033 115.8642,44.5459 114.77675,44.011054 C 112.4654,42.874257 110.00909,42.650883 107.37914,43.338326 C 105.23059,43.899937 102.57045,45.400293 100.72765,47.089855 C 100.21919,47.556039 99.759383,47.937463 99.705863,47.937463 C 99.652343,47.937463 98.887873,47.185228 98.007033,46.265828 C 96.051463,44.224637 94.491993,43.028917 92.481416,42.029067 C 88.871186,40.233716 85.546336,40.108166 82.413716,41.648899 C 81.326256,42.183745 80.895296,42.499878 79.912606,43.48361 C 77.385996,46.012886 76.083126,49.386644 75.802176,54.127462 L 75.711196,55.662625 L 74.615356,55.809343 C 71.065316,56.284646 68.619736,59.39588 67.722306,64.578592 C 67.358736,66.678263 67.397866,70.891978 67.806486,73.643271 C 68.331966,77.181351 69.815806,82.599434 70.762826,84.43797 C 71.069596,85.033552 71.170746,85.10044 73.167326,86.028108 C 75.158096,86.953075 77.340696,88.036782 79.906416,89.374216 C 83.684216,91.343462 88.777176,94.597595 91.926926,97.054667 C 94.581923,99.125791 96.105173,100.53125 97.651443,102.33652 C 98.371493,103.17716 99.128523,103.94031 99.333733,104.03239 C 99.772803,104.22941 101.97411,104.26794 102.45019,104.08694 z M 97.969953,91.837027 C 93.512383,91.581275 87.935556,90.168423 83.946176,88.284196 C 76.912996,84.962349 74.155176,80.153458 74.155366,71.21164 C 74.155416,68.355567 74.310106,66.502252 74.768566,63.864829 C 75.009776,62.477167 75.114796,62.105901 75.222226,62.260924 C 76.409366,63.973873 78.597446,65.956619 80.797006,67.312535 L 82.135646,68.13774 L 82.028416,69.39679 C 81.861426,71.357623 81.935866,74.412443 82.185526,75.84427 C 82.549846,77.933669 83.441346,80.433993 84.720146,82.952942 C 86.407996,86.277629 87.455176,87.6973 87.219346,86.341135 C 86.334866,81.254966 86.041046,77.673286 86.283586,74.934237 C 86.454516,73.004008 86.837506,70.437695 86.978376,70.278703 C 87.026736,70.224123 87.565636,70.333668 88.175926,70.522137 C 89.873586,71.046397 92.842086,71.663753 95.209373,71.984877 C 98.067833,72.372627 104.13376,72.495602 106.44592,72.212677 C 107.32478,72.105137 108.09074,72.042813 108.14806,72.074183 C 108.31941,72.167963 108.26344,74.830019 108.0473,76.866598 C 107.73073,79.84943 106.68444,83.761595 105.14836,87.705936 C 104.90894,88.320735 104.83559,88.668775 104.93278,88.728845 C 105.11719,88.842817 106.20075,87.729955 107.58018,86.009849 C 110.35644,82.54792 111.96374,79.406543 112.7113,75.981336 C 112.94412,74.91457 113.39343,71.628985 113.39343,70.99321 C 113.39343,70.843965 113.78495,70.625743 114.60925,70.315546 C 117.21036,69.336703 120.01145,67.711137 121.70096,66.199994 C 122.18415,65.767816 122.61877,65.453502 122.66679,65.501522 C 122.94102,65.775749 121.69708,72.712012 120.84102,75.682111 C 118.73365,82.993614 115.71569,87.408529 111.311,89.6234 C 107.89301,91.342114 103.12701,92.132922 97.969953,91.837027 z M 100.92573,70.134775 C 99.983963,69.114277 98.914003,66.973656 99.345693,66.973656 C 99.795293,66.973656 102.41636,69.391512 102.41636,69.806259 C 102.41636,70.436731 101.40923,70.65869 100.92573,70.134775 z M 93.741893,70.090113 C 93.399363,69.747586 93.475973,69.513709 94.175763,68.765584 C 94.841783,68.05355 96.368403,66.834706 96.594213,66.834706 C 97.025903,66.834706 95.955943,68.975327 95.014173,69.995825 C 94.677423,70.360727 94.058383,70.406603 93.741893,70.090113 z M 103.38901,64.864262 C 102.96588,64.575872 102.89722,64.448458 102.86059,63.883679 C 102.79219,62.828858 103.35226,61.864764 104.98435,60.227909 C 107.532,57.672818 110.83977,55.914392 113.40333,55.75235 C 115.51058,55.619149 116.14006,56.572139 115.19459,58.464193 C 113.70386,61.447407 108.41325,64.89863 104.98694,65.122946 C 103.9782,65.188988 103.83034,65.165049 103.38901,64.864262 z M 106.72583,63.723487 C 108.04944,62.847563 108.2409,61.339496 107.06956,61.016072 C 105.34151,60.538935 103.2035,62.923767 104.46588,63.92033 C 104.97881,64.325255 105.94346,64.241233 106.72583,63.723487 z M 90.952966,64.517067 C 87.425906,63.727675 82.888416,60.528725 81.579016,57.908392 C 80.633546,56.016337 81.263026,55.063348 83.370276,55.196548 C 85.933836,55.358591 89.241616,57.117017 91.789256,59.672107 C 93.421343,61.308963 93.981413,62.273057 93.913013,63.327878 C 93.876583,63.889647 93.807383,64.019696 93.398783,64.294252 C 93.025603,64.545009 92.748936,64.608123 92.078756,64.595382 C 91.612416,64.586517 91.105806,64.551275 90.952966,64.517067 z M 92.323726,63.350863 C 93.573113,62.368096 91.415756,59.987644 89.704046,60.460271 C 89.174126,60.606591 88.938186,60.921622 88.938186,61.482884 C 88.938186,62.934815 91.238866,64.204218 92.323726,63.350863 z M 7.1955958,86.29376 C 7.5176058,86.147577 8.5180458,85.498445 9.4188058,84.851243 C 10.319556,84.204041 15.089566,80.821726 20.018836,77.334987 C 24.948096,73.848249 29.002026,70.934505 29.027576,70.860002 C 29.053116,70.785496 28.759976,70.083804 28.376146,69.300686 C 27.992326,68.517566 27.546696,67.376612 27.385866,66.76523 C 27.029536,65.41069 26.876646,65.028352 26.691306,65.028352 C 26.451476,65.028352 4.2272958,79.470672 3.5508158,80.066134 C 2.5880657,80.913574 2.3074757,81.549381 2.3074757,82.883467 C 2.3074757,83.754754 2.3719157,84.115226 2.6055357,84.55087 C 3.5119358,86.24108 5.5810158,87.026731 7.1955958,86.29376 z M 201.8612,83.487143 C 202.54128,83.168516 203.36843,82.301576 203.67814,81.58283 C 203.96063,80.92722 203.96063,79.420651 203.67814,78.76504 C 203.30784,77.905659 202.48865,77.148087 201.08734,76.369102 C 196.89101,74.036377 180.34369,65.429287 180.13232,65.469349 C 179.95592,65.502782 179.87077,65.661381 179.8463,66.002142 C 179.78211,66.895899 179.5128,68.141321 179.00864,69.875928 L 178.50838,71.597122 L 178.8054,71.837628 C 178.96876,71.969908 182.90424,74.285139 187.5509,76.98259 C 192.19757,79.680039 196.62466,82.264279 197.38889,82.725345 C 198.15311,83.186412 199.05976,83.641575 199.40367,83.73682 C 200.16165,83.946749 201.07918,83.853531 201.8612,83.487143 z M 172.98339,74.127677 C 177.07197,72.224357 178.78948,63.563382 176.20756,57.869065 C 174.85645,54.889265 172.05405,52.562964 168.99587,51.882585 C 167.6433,51.581666 165.05659,51.679738 163.50528,52.090758 C 161.17062,52.709325 158.62289,54.181275 156.63733,56.058705 C 155.24292,57.377176 154.43442,58.399582 153.70039,59.772692 C 152.97877,61.12259 152.71609,62.079219 152.71773,63.35143 C 152.71944,64.680778 153.10246,65.566734 154.02741,66.380912 C 154.98343,67.222434 155.79705,67.461629 157.67105,67.45209 L 159.22144,67.444197 L 159.37753,68.237528 C 159.73896,70.074729 160.95382,71.631526 162.34946,72.045986 C 163.53457,72.397926 164.56646,72.256165 165.95474,71.550693 C 166.39689,71.326003 166.78153,71.142165 166.80951,71.142165 C 166.83746,71.142165 167.05985,71.453078 167.3037,71.833083 C 167.90988,72.777737 169.25,73.987591 169.97378,74.24361 C 170.92299,74.579368 172.11145,74.533587 172.98339,74.127677 z M 36.831476,71.281566 C 37.624686,70.876549 38.882016,69.595908 39.332926,68.733735 C 39.728086,67.978151 39.717226,67.979068 41.139276,68.581296 C 42.220326,69.039109 43.794916,69.115022 44.632426,68.749703 C 45.927126,68.184965 47.017156,66.597316 47.196096,65.01567 L 47.285716,64.223607 L 48.835516,64.174391 C 50.262776,64.129067 50.460346,64.08824 51.334096,63.658093 C 52.823596,62.924812 53.476466,61.842556 53.495286,60.075515 C 53.539156,55.955856 48.949476,50.884572 43.501436,49.032977 C 42.363296,48.646163 41.940466,48.575905 40.432816,48.523093 C 38.976876,48.472091 38.488516,48.510744 37.514856,48.754048 C 33.542586,49.746663 30.738056,52.748187 29.513186,57.317792 C 29.171406,58.592857 29.141046,58.921481 29.141046,61.346168 C 29.141046,63.76194 29.172386,64.104268 29.510016,65.375727 C 29.943476,67.008114 30.899146,69.007216 31.672066,69.898371 C 32.308146,70.631745 33.121526,71.226102 33.871896,71.505838 C 34.628146,71.787763 36.051316,71.679917 36.831476,71.281566 z M 153.39922,55.803597 C 153.98603,55.042974 155.03095,54.01211 155.91223,53.324389 L 156.39856,52.944875 L 156.10593,52.699113 C 155.94497,52.563942 146.14822,47.358167 134.33536,41.130724 L 112.85742,29.808098 L 112.54352,29.113533 C 111.42696,26.642952 107.77923,25.359994 106.08953,26.843572 C 104.05188,28.632649 106.66867,32.22819 110.17423,32.456067 C 111.15374,32.51974 107.84744,30.643631 142.08667,50.564308 C 147.74195,53.854597 152.47082,56.547942 152.59526,56.549517 C 152.71971,56.551093 153.08148,56.215429 153.39922,55.803597 z M 71.806666,40.691591 C 81.649326,33.725877 89.921256,27.886317 90.188736,27.714791 C 90.456216,27.543267 91.015046,27.361182 91.430566,27.31016 C 93.656733,27.036811 95.746753,25.01174 95.746753,23.128099 C 95.746753,22.21851 95.347113,21.58526 94.495073,21.144707 C 93.665263,20.715649 92.559186,20.806679 91.339536,21.404408 C 90.001856,22.059981 89.195416,22.964772 88.609716,24.467146 C 88.431886,24.923294 86.792676,26.016539 69.362666,37.303682 C 55.255886,46.438799 50.309996,49.708978 50.309996,49.901137 C 50.309996,50.043879 50.363556,50.160668 50.429006,50.160668 C 50.558326,50.160668 52.561646,52.173123 53.160826,52.904937 C 53.364176,53.153311 53.616136,53.356525 53.720736,53.356525 C 53.825336,53.356525 61.964006,47.657305 71.806666,40.691591 z"
       id="path2433" />
  </g>
</svg>
